<svg width="24" height="29" viewBox="0 0 24 29" fill="none" xmlns="http://www.w3.org/2000/svg">
<path fill-rule="evenodd" clip-rule="evenodd" d="M21.469 12.3919C20.101 13.1568 19.541 14.8663 20.195 16.2868C20.424 16.7835 20.198 17.1788 20.091 17.3268C19.984 17.4738 19.684 17.8056 19.125 17.748C17.563 17.5642 16.101 18.6251 15.791 20.1539C15.683 20.6903 15.265 20.88 15.09 20.9366C14.914 20.9912 14.466 21.0816 14.061 20.7121C12.906 19.6562 11.095 19.6552 9.939 20.7131C9.535 21.0816 9.086 20.9932 8.91 20.9366C8.736 20.88 8.318 20.6903 8.209 20.1548C7.923 18.7393 6.647 17.7271 5.221 17.7271C5.107 17.7271 4.991 17.7341 4.875 17.748C4.335 17.8026 4.017 17.4738 3.909 17.3268C3.802 17.1788 3.576 16.7835 3.806 16.2858C4.459 14.8663 3.9 13.1568 2.532 12.3919C2.052 12.1228 2 11.6708 2 11.489C2 11.3062 2.052 10.8533 2.532 10.5851C3.901 9.82021 4.46 8.10969 3.806 6.69121C3.576 6.19454 3.802 5.79721 3.909 5.6502C4.019 5.50219 4.333 5.1734 4.874 5.22903C6.442 5.41577 7.901 4.35291 8.209 2.82317C8.318 2.28677 8.736 2.09804 8.91 2.04142C9.085 1.9848 9.533 1.89341 9.94 2.26591C11.094 3.32083 12.906 3.32183 14.062 2.26492C14.467 1.89441 14.916 1.9848 15.09 2.04142C15.265 2.09804 15.683 2.28677 15.791 2.82218C16.101 4.35291 17.575 5.41677 19.125 5.22903C19.682 5.17042 19.982 5.50219 20.091 5.6502C20.198 5.79721 20.424 6.19455 20.195 6.6922C19.54 8.10969 20.1 9.82021 21.469 10.5851C21.948 10.8543 22 11.3062 22 11.489C22 11.6708 21.948 12.1228 21.469 12.3919ZM12.3208 25.0779C12.1148 25.0093 11.8948 25.0093 11.6898 25.0779L7.00781 26.6275V22.0025C7.00781 22.373 7.78681 22.6611 8.29681 22.826C8.61281 22.9273 8.93181 22.977 9.24881 22.977C9.99581 22.977 10.7198 22.7008 11.2938 22.1753C11.6908 21.8118 12.3118 21.8128 12.7068 22.1743C13.5258 22.9253 14.6538 23.1677 15.7108 22.826C16.2218 22.6611 17.0078 22.373 17.0078 22.0025V26.6275L12.3208 25.0779ZM22.45 8.85372H22.449C21.981 8.59149 21.788 8.00542 22.013 7.51968C22.477 6.51343 22.364 5.37706 21.709 4.48207C21.053 3.58608 20.003 3.12319 18.894 3.25629C18.373 3.31987 17.858 2.95631 17.752 2.43183C17.532 1.34612 16.768 0.493836 15.708 0.152129C14.647 -0.19057 13.526 0.0547828 12.707 0.802762C12.311 1.16533 11.689 1.16434 11.294 0.803756C10.474 0.0537895 9.354 -0.19057 8.292 0.152129C7.233 0.493836 6.468 1.34612 6.248 2.43282C6.144 2.95531 5.649 3.32384 5.106 3.25629C3.998 3.12617 2.947 3.58707 2.291 4.48207C1.637 5.37706 1.524 6.51343 1.988 7.51868C2.212 8.00542 2.02 8.59149 1.55 8.85372C0.579 9.39708 0 10.3835 0 11.49C0.001 12.5956 0.58 13.58 1.551 14.1224C2.028 14.3896 2.215 14.9637 1.988 15.4584C1.524 16.4646 1.641 17.599 2.295 18.495C2.929 19.3602 4.008 19.8092 5.008 19.7198V28.0062C5.008 28.325 5.158 28.625 5.419 28.8118C5.68 28.9985 6.013 29.0512 6.319 28.9479L12.001 27.0655L17.684 28.9479C17.788 28.9826 17.894 28.9995 18 28.9995C18.208 28.9995 18.416 28.9349 18.589 28.8118C18.85 28.625 19.008 28.325 19.008 28.0062V19.7198C20.008 19.8122 21.079 19.3612 21.713 18.495C22.367 17.599 22.479 16.4646 22.015 15.4594C21.787 14.9637 21.974 14.3896 22.45 14.1224C23.421 13.58 24 12.5956 24.001 11.49C24.001 10.3835 23.421 9.39708 22.45 8.85372Z" fill="white"/>
</svg>
