<svg width="72" height="48" viewBox="0 0 72 48" fill="none" xmlns="http://www.w3.org/2000/svg">
<g opacity="0.8">
<path fill-rule="evenodd" clip-rule="evenodd" d="M53.2783 36.0784C52.5423 36.0724 51.9516 35.4779 51.9571 34.7497C51.9626 34.0215 52.5627 33.4362 53.2986 33.4417C54.0324 33.4477 54.6248 34.0417 54.6193 34.7699C54.6138 35.4986 54.012 36.0839 53.2783 36.0784ZM55.0236 32.6813C54.7942 32.6796 54.6303 32.8602 54.6292 33.0386L54.6281 33.1766C54.2673 32.8678 53.8003 32.6747 53.2937 32.6698C52.1777 32.6595 51.1832 33.5835 51.1739 34.748C51.1656 35.8166 52.099 36.8447 53.2613 36.8535C53.731 36.8567 54.2365 36.6816 54.599 36.38C54.599 36.38 54.6045 36.5404 54.6111 36.5704C54.5456 37.0536 54.1886 37.4933 53.5814 37.6798C53.1727 37.8047 52.0028 37.5222 51.9076 37.5036C51.6326 37.4535 51.4918 37.688 51.4924 37.8958C51.4913 38.0616 51.6244 38.1953 51.8972 38.2831C52.2437 38.3955 52.8515 38.4675 53.3834 38.4784C53.7827 38.4866 55.341 38.1871 55.4081 36.4978L55.435 33.0653C55.44 32.906 55.264 32.684 55.0236 32.6813ZM69.4538 36.2016C68.7822 36.1967 68.2311 35.6982 68.1475 35.0551L68.1502 34.6896C68.2437 34.0498 68.8031 33.5606 69.4742 33.5655C70.209 33.5709 70.8003 34.1649 70.7943 34.8931C70.7887 35.6218 70.1887 36.2076 69.4538 36.2016ZM69.4917 32.7937C68.9851 32.7904 68.5143 32.9769 68.1502 33.2797L68.1513 33.1417C68.1529 32.9638 67.9912 32.7806 67.7618 32.7784C67.5209 32.7778 67.3421 32.9971 67.3438 33.1564L67.3047 38.2133C67.3009 38.4386 67.4808 38.6071 67.703 38.6087C67.9565 38.6109 68.1188 38.4162 68.1205 38.2018L68.1348 36.4891C68.4917 36.7929 68.9917 36.9735 69.4592 36.9773C70.6209 36.986 71.5697 35.972 71.578 34.904C71.5868 33.7395 70.6077 32.8002 69.4917 32.7937ZM66.6505 32.7702C66.4084 32.7686 66.2511 32.9639 66.2495 33.1455L66.2363 34.8631C66.2313 35.5275 65.662 36.17 64.8788 36.164C64.238 36.1591 63.5642 35.6028 63.5702 34.8549L63.5835 33.134C63.5845 32.9535 63.4509 32.7457 63.1792 32.744C62.9883 32.7424 62.7908 32.8995 62.7892 33.1209L62.7754 34.8364C62.7672 35.9464 63.7611 36.9326 64.8705 36.9413C66.0823 36.9506 67.0201 35.9278 67.0283 34.8735L67.0415 33.1526C67.0432 32.96 66.8842 32.7718 66.6505 32.7702ZM60.3547 36.1324C59.6242 36.1269 59.0385 35.54 59.0352 34.8184L59.0357 34.7873C59.0473 34.2047 59.4383 33.7149 59.9735 33.5529C60.0989 33.5147 60.232 33.4957 60.3707 33.4967C61.0995 33.5022 61.6874 34.0891 61.6896 34.8102V34.8424C61.6775 35.4249 61.2865 35.9131 60.7496 36.0767C60.6253 36.1144 60.4922 36.1335 60.3547 36.1324ZM62.4737 34.8271C62.4825 33.7586 61.5491 32.7315 60.3885 32.7228C60.3885 32.7228 60.3621 32.7239 60.3489 32.7244C59.2427 32.725 58.2604 33.6446 58.251 34.8021C58.2428 35.8706 59.1751 36.8988 60.3379 36.9075L60.3758 36.9053C61.4836 36.9031 62.4649 35.9846 62.4737 34.8271ZM57.8597 32.7031C56.7212 32.6988 55.7421 33.6866 55.7388 34.783L55.7256 36.4908C55.7239 36.7133 55.9071 36.877 56.1002 36.8786C56.3295 36.8802 56.51 36.7133 56.5116 36.5082L56.5248 34.7737C56.5287 34.1535 57.082 33.4728 57.8482 33.4826C58.0996 33.4853 58.2635 33.2977 58.2646 33.0899C58.2646 32.924 58.1469 32.7048 57.8597 32.7031ZM49.215 27.2889C47.9972 27.2791 46.9186 26.342 46.929 24.9718L46.9895 17.3895C46.9923 16.8658 46.5644 16.496 46.0374 16.4922C45.4252 16.4889 45.0683 16.9335 45.065 17.3748L45.0061 24.9648C44.9808 27.3206 46.9307 29.1822 49.166 29.1997C49.8299 29.2046 50.1545 28.6728 50.1578 28.22C50.1611 27.788 49.8217 27.2938 49.215 27.2889ZM35.2453 27.2655C33.517 27.2519 32.1265 25.8528 32.1397 24.1395C32.1529 22.4262 33.5649 21.0479 35.2937 21.0615C37.0224 21.0746 38.4129 22.4737 38.3997 24.1875C38.386 25.9002 36.974 27.2786 35.2453 27.2655ZM39.3517 19.2735C38.8116 19.2685 38.4266 19.6945 38.4233 20.1124L38.4205 20.438C37.574 19.712 36.4734 19.2571 35.2809 19.2462C32.6578 19.2216 30.3185 21.3953 30.297 24.1367C30.2778 26.6496 32.4719 29.0665 35.2044 29.0873C36.31 29.096 37.5025 28.6836 38.3523 27.9751L38.3534 28.2085C38.3496 28.6547 38.7027 29.114 39.2885 29.1184C39.9535 29.1238 40.2549 28.5991 40.2582 28.1835L40.3203 20.1773C40.3302 19.8025 39.9183 19.2784 39.3517 19.2735ZM42.6906 19.2969C42.1158 19.2948 41.7412 19.7595 41.7363 20.234L41.6769 28.2102C41.6686 28.7388 42.0878 29.1369 42.6103 29.1408C43.2065 29.1451 43.5905 28.6864 43.5949 28.184L43.6603 20.2619C43.6642 19.7933 43.1906 19.2991 42.6906 19.2969ZM26.3158 19.178C25.1387 19.1513 24.2311 19.8228 23.6706 20.27C23.0584 19.6084 22.2702 19.2015 21.4584 19.1453C20.6014 19.0869 19.7956 19.3668 19.2813 19.7748C19.1053 19.3613 18.8715 19.1175 18.4673 19.1142C18.0245 19.1109 17.5503 19.4824 17.5459 20.0949C17.541 20.7064 17.4893 28.034 17.4893 28.034C17.4854 28.49 17.8749 28.9553 18.4354 28.9591C19.0536 28.964 19.399 28.4988 19.4023 28.0455L19.448 22.1562C19.4524 21.5835 20.4457 20.9131 21.2807 20.93C21.8142 20.9415 22.444 21.4679 22.438 22.2909L22.3978 28.082C22.394 28.5942 22.9105 28.9908 23.3818 28.9946C23.9418 28.9989 24.3697 28.5822 24.3736 28.1033L24.4192 22.2506C24.4247 21.5333 25.5281 20.9404 26.2794 20.9851C26.8691 21.02 27.3856 21.6609 27.3806 22.2729L27.335 28.1175C27.3317 28.6242 27.8075 29.0284 28.3239 29.0322C28.7777 29.0355 29.3052 28.742 29.3096 28.124L29.3553 22.3051C29.3784 20.1691 27.2585 19.1562 26.3158 19.178ZM43.6738 17.294C43.6771 16.8882 43.3432 16.4715 42.6986 16.4666C42.1106 16.4622 41.7663 16.8926 41.7564 17.2793L41.752 17.7904C41.7492 18.1619 42.1078 18.5584 42.6881 18.5633C43.264 18.5671 43.6666 18.2442 43.6694 17.8482L43.6738 17.294ZM70.768 19.5102C70.1987 19.5058 69.828 19.9657 69.8247 20.3927L69.7939 24.4346C69.7812 25.9957 68.4446 27.5087 66.602 27.4946C65.096 27.4831 63.5103 26.1751 63.524 24.416L63.5554 20.3666C63.5587 19.9417 63.2413 19.4529 62.6032 19.448C62.1528 19.4447 61.6896 19.8157 61.6858 20.3344L61.6544 24.3702C61.6341 26.9835 63.9712 29.3033 66.5822 29.3229C69.4325 29.3447 71.6387 26.9377 71.658 24.4586L71.6899 20.4091C71.6932 19.9553 71.3186 19.5146 70.768 19.5102ZM59.6409 19.4251C56.9617 19.4164 54.6587 21.74 54.651 24.3173L54.6202 28.3346C54.6157 28.8577 55.0448 29.2444 55.5002 29.2477C56.0409 29.252 56.4644 28.8582 56.4683 28.3766L56.5002 24.2982C56.5101 22.838 57.8093 21.2355 59.6145 21.2579C60.203 21.265 60.5919 20.8259 60.593 20.3366C60.5941 19.9455 60.3147 19.4273 59.6409 19.4251ZM53.2909 27.8426C53.2942 27.4373 52.978 27.0037 52.3333 26.9988C51.7442 26.9944 51.3807 27.3937 51.3702 27.7809L51.3653 28.4229C51.362 28.7949 51.7206 29.2193 52.3014 29.2237C52.8768 29.228 53.2766 28.8457 53.2843 28.4693L53.2909 27.8426ZM10.4416 23.534C10.3663 21.8317 9.10065 20.798 7.56275 20.7866L7.50444 20.786C5.72947 20.7724 4.7339 22.1497 4.7218 23.7217C4.70805 25.483 5.89063 26.6039 7.45219 26.6159C9.19361 26.629 10.3487 25.3733 10.4433 23.8777L10.4416 23.534ZM7.52563 19.2637C8.71152 19.2729 9.82259 19.8009 10.6355 20.6213V20.6246C10.6383 20.2335 10.9056 19.9411 11.2741 19.9438H11.3671C11.943 19.9482 12.0574 20.4898 12.0557 20.6611L12.0117 26.738C11.9677 27.1351 12.4204 27.344 12.6751 27.0915C13.6663 26.0955 14.8758 21.9528 12.1218 19.5255C9.55527 17.2624 6.08453 17.606 4.2309 18.8518C2.26012 20.1778 0.982929 23.1353 2.17981 25.9318C3.4845 28.9826 7.27812 29.918 9.54427 29.0311C10.6917 28.5817 11.2081 30.1193 10.0162 30.6113C8.21538 31.3558 3.21938 31.2418 0.916374 27.2142C-0.639134 24.4946 -0.518125 19.7322 3.68307 17.2957C6.89749 15.4324 11.1113 15.9877 13.6344 18.6413C16.2718 21.4155 16.0771 26.5706 13.4677 28.5566C12.2857 29.4582 10.5475 28.5582 10.569 27.2311L10.5602 26.7969C9.73569 27.596 8.64331 28.0575 7.45743 28.0482C5.11372 28.0302 3.06702 25.9695 3.08518 23.6458C3.10333 21.2988 5.18137 19.2457 7.52563 19.2637Z" fill="white"/>
</g>
</svg>
