<svg width="28" height="41" viewBox="0 0 28 41" fill="none" xmlns="http://www.w3.org/2000/svg">
<path d="M27.9219 41H1.15234V36.4336L14.4141 21.9688C16.3281 19.8359 17.6862 18.0586 18.4883 16.6367C19.3086 15.1966 19.7188 13.7565 19.7188 12.3164C19.7188 10.4206 19.181 8.88932 18.1055 7.72266C17.0482 6.55599 15.6172 5.97266 13.8125 5.97266C11.6615 5.97266 9.99349 6.62891 8.80859 7.94141C7.6237 9.25391 7.03125 11.0495 7.03125 13.3281H0.386719C0.386719 10.9036 0.933594 8.72526 2.02734 6.79297C3.13932 4.84245 4.71615 3.32943 6.75781 2.25391C8.81771 1.17839 11.1875 0.640625 13.8672 0.640625C17.7318 0.640625 20.776 1.61589 23 3.56641C25.2422 5.4987 26.3633 8.17839 26.3633 11.6055C26.3633 13.5924 25.7982 15.6797 24.668 17.8672C23.556 20.0365 21.724 22.5065 19.1719 25.2773L9.4375 35.6953H27.9219V41Z" fill="#57D6E1"/>
</svg>
