<svg width="27" height="42" viewBox="0 0 27 42" fill="none" xmlns="http://www.w3.org/2000/svg">
<path d="M8.83594 18.0586H12.8828C14.9245 18.0404 16.5378 17.5117 17.7227 16.4727C18.9258 15.4336 19.5273 13.9297 19.5273 11.9609C19.5273 10.0651 19.026 8.59766 18.0234 7.55859C17.0391 6.5013 15.526 5.97266 13.4844 5.97266C11.6979 5.97266 10.2305 6.49219 9.08203 7.53125C7.93359 8.55208 7.35938 9.89193 7.35938 11.5508H0.714844C0.714844 9.50911 1.2526 7.64974 2.32812 5.97266C3.42188 4.29557 4.9349 2.99219 6.86719 2.0625C8.81771 1.11458 10.9961 0.640625 13.4023 0.640625C17.3763 0.640625 20.4935 1.64323 22.7539 3.64844C25.0326 5.63542 26.1719 8.40625 26.1719 11.9609C26.1719 13.7474 25.5977 15.4336 24.4492 17.0195C23.319 18.5872 21.8516 19.7721 20.0469 20.5742C22.2344 21.3216 23.8932 22.4974 25.0234 24.1016C26.1719 25.7057 26.7461 27.6198 26.7461 29.8438C26.7461 33.4167 25.5156 36.2604 23.0547 38.375C20.612 40.4896 17.3945 41.5469 13.4023 41.5469C9.57422 41.5469 6.4388 40.526 3.99609 38.4844C1.55339 36.4427 0.332031 33.7266 0.332031 30.3359H6.97656C6.97656 32.0859 7.5599 33.5078 8.72656 34.6016C9.91146 35.6953 11.4974 36.2422 13.4844 36.2422C15.5443 36.2422 17.1667 35.6953 18.3516 34.6016C19.5365 33.5078 20.1289 31.9219 20.1289 29.8438C20.1289 27.7474 19.5091 26.1341 18.2695 25.0039C17.0299 23.8737 15.1888 23.3086 12.7461 23.3086H8.83594V18.0586Z" fill="#57D6E1"/>
</svg>
