<svg width="20" height="20" viewBox="0 0 20 20" fill="none" xmlns="http://www.w3.org/2000/svg">
<path fill-rule="evenodd" clip-rule="evenodd" d="M2.85714 4.28571C2.85714 5.07429 3.49749 5.71429 4.28571 5.71429C5.07394 5.71429 5.71429 5.07429 5.71429 4.28571C5.71429 3.49714 5.07394 2.85714 4.28571 2.85714C3.49749 2.85714 2.85714 3.49714 2.85714 4.28571ZM0 4.28571C0 1.9186 1.91825 0 4.28571 0C6.65318 0 8.57143 1.9186 8.57143 4.28571C8.57143 6.65283 6.65318 8.57143 4.28571 8.57143C1.91825 8.57143 0 6.65283 0 4.28571ZM11.4286 15.7143C11.4286 13.3472 13.3468 11.4286 15.7143 11.4286C18.0818 11.4286 20 13.3472 20 15.7143C20 18.0814 18.0818 20 15.7143 20C13.3468 20 11.4286 18.0814 11.4286 15.7143ZM15.7143 17.1429C14.9261 17.1429 14.2857 16.5029 14.2857 15.7143C14.2857 14.9257 14.9261 14.2857 15.7143 14.2857C16.5025 14.2857 17.1429 14.9257 17.1429 15.7143C17.1429 16.5029 16.5025 17.1429 15.7143 17.1429ZM2.85714 20H5.71429L17.1429 0H14.2857L2.85714 20Z" fill="white"/>
</svg>
