<svg width="26" height="24" viewBox="0 0 26 24" fill="none" xmlns="http://www.w3.org/2000/svg">
<path fill-rule="evenodd" clip-rule="evenodd" d="M25 17H22V3C22 1.34619 20.6543 0 19 0H3C1.3457 0 0 1.34619 0 3V6C0 6.55322 0.447266 7 1 7H4V21C4 22.6538 5.3457 24 7 24H23C24.6543 24 26 22.6538 26 21V18C26 17.4468 25.5527 17 25 17ZM24 21C24 21.5518 23.5527 22 23 22H9.81641C9.92871 21.686 10 21.3521 10 21V19H20H24V21ZM6 21V6V5V3C6 2.64795 5.92871 2.31396 5.81641 2H19C19.5527 2 20 2.44824 20 3V17H17.8164C17.8652 16.8633 17.9062 16.7231 17.9375 16.5796C17.9775 16.3926 18 16.1997 18 16C18 14.3428 16.6572 13 15 13C13.3438 13 12 14.3428 12 16C12 16.353 12.0723 16.686 12.1846 17H9C8.44727 17 8 17.4468 8 18V21C8 21.2988 7.86914 21.5674 7.66113 21.7505C7.48535 21.9058 7.25391 22 7 22C6.44824 22 6 21.5518 6 21ZM2 5V3C2 2.44824 2.44824 2 3 2C3.55176 2 4 2.44824 4 3V5H2ZM9 7H17C17.5518 7 18 6.55176 18 6C18 5.44824 17.5518 5 17 5H9C8.44824 5 8 5.44824 8 6C8 6.55176 8.44824 7 9 7ZM17 11H9C8.44824 11 8 10.5518 8 10C8 9.44824 8.44824 9 9 9H17C17.5518 9 18 9.44824 18 10C18 10.5518 17.5518 11 17 11Z" fill="white"/>
</svg>
